<?xml version="1.0" encoding="UTF-8" standalone="no"?>
<!DOCTYPE svg PUBLIC "-//W3C//DTD SVG 1.1//EN"
 "http://www.w3.org/Graphics/SVG/1.1/DTD/svg11.dtd">
<!-- Generated by graphviz version 2.40.1 (20161225.0304)
 -->
<!-- Title: Automaton_metaclass Pages: 1 -->
<svg width="749pt" height="437pt"
 viewBox="0.00 0.00 748.54 437.00" xmlns="http://www.w3.org/2000/svg" xmlns:xlink="http://www.w3.org/1999/xlink">
<g id="graph0" class="graph" transform="scale(1 1) rotate(0) translate(4 433)">
<title>Automaton_metaclass</title>
<polygon fill="#ffffff" stroke="transparent" points="-4,4 -4,-433 744.5427,-433 744.5427,4 -4,4"/>
<!-- START -->
<g id="node1" class="node">
<title>START</title>
<polygon fill="#0000ff" stroke="#000000" points="115.5427,-429 49.5427,-429 49.5427,-393 115.5427,-393 115.5427,-429"/>
<text text-anchor="middle" x="82.5427" y="-407.3" font-family="Times,serif" font-size="14.00" fill="#000000">START</text>
</g>
<!-- SYN_SENT -->
<g id="node4" class="node">
<title>SYN_SENT</title>
<ellipse fill="none" stroke="#000000" cx="82.5427" cy="-309" rx="64.189" ry="18"/>
<text text-anchor="middle" x="82.5427" y="-305.3" font-family="Times,serif" font-size="14.00" fill="#000000">SYN_SENT</text>
</g>
<!-- START&#45;&gt;SYN_SENT -->
<g id="edge1" class="edge">
<title>START&#45;&gt;SYN_SENT</title>
<path fill="none" stroke="#a020f0" d="M82.5427,-392.7644C82.5427,-377.317 82.5427,-354.9149 82.5427,-337.164"/>
<polygon fill="#a020f0" stroke="#a020f0" points="86.0428,-337.0776 82.5427,-327.0777 79.0428,-337.0777 86.0428,-337.0776"/>
<text text-anchor="start" x="82.5427" y="-363.8" font-family="Times,serif" font-size="14.00" fill="#000000">connect</text>
<text text-anchor="middle" x="127.0427" y="-348.8" font-family="Times,serif" font-size="14.00" fill="#000000">&gt;[send_syn]</text>
</g>
<!-- CLOSED -->
<g id="node2" class="node">
<title>CLOSED</title>
<polygon fill="#00ff00" stroke="#000000" points="407.5085,-10.5442 407.5085,-25.4558 374.1387,-36 326.9467,-36 293.5769,-25.4558 293.5769,-10.5442 326.9467,0 374.1387,0 407.5085,-10.5442"/>
<text text-anchor="middle" x="350.5427" y="-14.3" font-family="Times,serif" font-size="14.00" fill="#000000">CLOSED</text>
</g>
<!-- STOP -->
<g id="node3" class="node">
<title>STOP</title>
<polygon fill="#ffa500" stroke="#000000" points="624.5427,-225 566.5427,-225 566.5427,-189 624.5427,-189 624.5427,-225"/>
<text text-anchor="middle" x="595.5427" y="-203.3" font-family="Times,serif" font-size="14.00" fill="#000000">STOP</text>
</g>
<!-- STOP_SENT_FIN_ACK -->
<g id="node5" class="node">
<title>STOP_SENT_FIN_ACK</title>
<ellipse fill="none" stroke="#000000" cx="589.5427" cy="-105" rx="119.6788" ry="18"/>
<text text-anchor="middle" x="589.5427" y="-101.3" font-family="Times,serif" font-size="14.00" fill="#000000">STOP_SENT_FIN_ACK</text>
</g>
<!-- STOP&#45;&gt;STOP_SENT_FIN_ACK -->
<g id="edge2" class="edge">
<title>STOP&#45;&gt;STOP_SENT_FIN_ACK</title>
<path fill="none" stroke="#a020f0" d="M594.47,-188.7644C593.5613,-173.317 592.2436,-150.9149 591.1994,-133.164"/>
<polygon fill="#a020f0" stroke="#a020f0" points="594.6873,-132.8549 590.6061,-123.0777 587.6994,-133.266 594.6873,-132.8549"/>
<text text-anchor="middle" x="643.0427" y="-152.3" font-family="Times,serif" font-size="14.00" fill="#000000">stop_behavior</text>
</g>
<!-- ESTABLISHED -->
<g id="node6" class="node">
<title>ESTABLISHED</title>
<ellipse fill="none" stroke="#000000" cx="82.5427" cy="-207" rx="82.5854" ry="18"/>
<text text-anchor="middle" x="82.5427" y="-203.3" font-family="Times,serif" font-size="14.00" fill="#000000">ESTABLISHED</text>
</g>
<!-- SYN_SENT&#45;&gt;ESTABLISHED -->
<g id="edge3" class="edge">
<title>SYN_SENT&#45;&gt;ESTABLISHED</title>
<path fill="none" stroke="#ff0000" d="M82.5427,-290.7644C82.5427,-275.317 82.5427,-252.9149 82.5427,-235.164"/>
<polygon fill="#ff0000" stroke="#ff0000" points="86.0428,-235.0776 82.5427,-225.0777 79.0428,-235.0777 86.0428,-235.0776"/>
<text text-anchor="start" x="82.5427" y="-261.8" font-family="Times,serif" font-size="14.00" fill="#000000">synack_received</text>
<text text-anchor="middle" x="167.0427" y="-246.8" font-family="Times,serif" font-size="14.00" fill="#000000">&gt;[send_ack_of_synack]</text>
</g>
<!-- STOP_SENT_FIN_ACK&#45;&gt;CLOSED -->
<g id="edge8" class="edge">
<title>STOP_SENT_FIN_ACK&#45;&gt;CLOSED</title>
<path fill="none" stroke="#ff0000" d="M508.195,-91.7016C483.9379,-86.2598 457.6678,-78.8606 434.5427,-69 423.3166,-64.2132 421.9115,-60.4363 411.5427,-54 403.9517,-49.288 395.756,-44.3508 387.9103,-39.6959"/>
<polygon fill="#ff0000" stroke="#ff0000" points="389.6431,-36.6545 379.2519,-34.5873 386.0859,-42.6833 389.6431,-36.6545"/>
<text text-anchor="middle" x="501.0427" y="-57.8" font-family="Times,serif" font-size="14.00" fill="#000000">stop_ack_received</text>
</g>
<!-- STOP_SENT_FIN_ACK&#45;&gt;CLOSED -->
<g id="edge10" class="edge">
<title>STOP_SENT_FIN_ACK&#45;&gt;CLOSED</title>
<path fill="none" stroke="#0000ff" d="M586.3153,-86.9663C583.3522,-75.7662 577.7949,-62.0222 567.5427,-54 544.7152,-36.1378 472.6584,-26.8009 417.7825,-22.1595"/>
<polygon fill="#0000ff" stroke="#0000ff" points="418.0017,-18.6659 407.7517,-21.3465 417.4362,-25.643 418.0017,-18.6659"/>
<text text-anchor="middle" x="659.5427" y="-57.8" font-family="Times,serif" font-size="14.00" fill="#000000">stop_ack_timeout/1.0s</text>
</g>
<!-- ESTABLISHED&#45;&gt;CLOSED -->
<g id="edge5" class="edge">
<title>ESTABLISHED&#45;&gt;CLOSED</title>
<path fill="none" stroke="#ff0000" d="M78.0142,-188.7726C72.7769,-162.981 67.6622,-115.7787 91.5427,-87 115.85,-57.7069 214.8671,-37.6742 283.1773,-27.0294"/>
<polygon fill="#ff0000" stroke="#ff0000" points="284.0823,-30.4319 293.4403,-25.4643 283.0269,-23.5119 284.0823,-30.4319"/>
<text text-anchor="middle" x="144.5427" y="-101.3" font-family="Times,serif" font-size="14.00" fill="#000000">reset_received</text>
</g>
<!-- ESTABLISHED&#45;&gt;ESTABLISHED -->
<g id="edge4" class="edge">
<title>ESTABLISHED&#45;&gt;ESTABLISHED</title>
<path fill="none" stroke="#ff0000" d="M163.0059,-211.2523C174.984,-210.5903 183.0854,-209.1729 183.0854,-207 183.0854,-205.5062 179.2562,-204.3694 172.9707,-203.5896"/>
<polygon fill="#ff0000" stroke="#ff0000" points="173.2652,-200.1021 163.0059,-202.7477 172.6757,-207.0773 173.2652,-200.1021"/>
<text text-anchor="start" x="183.0854" y="-210.8" font-family="Times,serif" font-size="14.00" fill="#000000">incoming_data_received</text>
<text text-anchor="middle" x="270.5854" y="-195.8" font-family="Times,serif" font-size="14.00" fill="#000000">&gt;[receive_data]</text>
</g>
<!-- ESTABLISHED&#45;&gt;ESTABLISHED -->
<g id="edge9" class="edge">
<title>ESTABLISHED&#45;&gt;ESTABLISHED</title>
<path fill="none" stroke="#ffa500" d="M157.3408,-214.7828C240.422,-218.42 358.0854,-215.8257 358.0854,-207 358.0854,-198.5277 249.6557,-195.7978 167.4768,-198.8103"/>
<polygon fill="#ffa500" stroke="#ffa500" points="167.1923,-195.3188 157.3408,-199.2172 167.4732,-202.3132 167.1923,-195.3188"/>
<text text-anchor="start" x="358.0854" y="-210.8" font-family="Times,serif" font-size="14.00" fill="#000000">outgoing_data_received</text>
<text text-anchor="middle" x="444.0854" y="-195.8" font-family="Times,serif" font-size="14.00" fill="#000000">&gt;[send_data]</text>
</g>
<!-- LAST_ACK -->
<g id="node7" class="node">
<title>LAST_ACK</title>
<ellipse fill="none" stroke="#000000" cx="268.5427" cy="-105" rx="62.2891" ry="18"/>
<text text-anchor="middle" x="268.5427" y="-101.3" font-family="Times,serif" font-size="14.00" fill="#000000">LAST_ACK</text>
</g>
<!-- ESTABLISHED&#45;&gt;LAST_ACK -->
<g id="edge6" class="edge">
<title>ESTABLISHED&#45;&gt;LAST_ACK</title>
<path fill="none" stroke="#ff0000" d="M113.2568,-190.1568C145.3662,-172.5484 195.8087,-144.8864 230.437,-125.8966"/>
<polygon fill="#ff0000" stroke="#ff0000" points="232.232,-128.9041 239.3172,-121.0269 228.8661,-122.7664 232.232,-128.9041"/>
<text text-anchor="start" x="197.5427" y="-159.8" font-family="Times,serif" font-size="14.00" fill="#000000">fin_received</text>
<text text-anchor="middle" x="252.0427" y="-144.8" font-family="Times,serif" font-size="14.00" fill="#000000">&gt;[send_finack]</text>
</g>
<!-- LAST_ACK&#45;&gt;CLOSED -->
<g id="edge7" class="edge">
<title>LAST_ACK&#45;&gt;CLOSED</title>
<path fill="none" stroke="#ff0000" d="M264.3404,-86.5828C263.0229,-76.1937 263.2729,-63.4437 269.5427,-54 275.6033,-44.8713 284.5587,-38.0357 294.3298,-32.9238"/>
<polygon fill="#ff0000" stroke="#ff0000" points="295.8643,-36.0704 303.4729,-28.6975 292.9271,-29.7164 295.8643,-36.0704"/>
<text text-anchor="middle" x="340.5427" y="-57.8" font-family="Times,serif" font-size="14.00" fill="#000000">ack_of_fin_received</text>
</g>
</g>
</svg>
