<?xml version="1.0" encoding="UTF-8" standalone="no"?>
<!DOCTYPE svg PUBLIC "-//W3C//DTD SVG 1.1//EN"
 "http://www.w3.org/Graphics/SVG/1.1/DTD/svg11.dtd">
<!-- Generated by graphviz version 2.40.1 (20161225.0304)
 -->
<!-- Title: Automaton_metaclass Pages: 1 -->
<svg width="749pt" height="452pt"
 viewBox="0.00 0.00 748.54 452.00" xmlns="http://www.w3.org/2000/svg" xmlns:xlink="http://www.w3.org/1999/xlink">
<g id="graph0" class="graph" transform="scale(1 1) rotate(0) translate(4 448)">
<title>Automaton_metaclass</title>
<polygon fill="#ffffff" stroke="transparent" points="-4,4 -4,-448 744.5427,-448 744.5427,4 -4,4"/>
<!-- START -->
<g id="node1" class="node">
<title>START</title>
<polygon fill="#0000ff" stroke="#000000" points="115.5427,-444 49.5427,-444 49.5427,-408 115.5427,-408 115.5427,-444"/>
<text text-anchor="middle" x="82.5427" y="-422.3" font-family="Times,serif" font-size="14.00" fill="#000000">START</text>
</g>
<!-- SYN_SENT -->
<g id="node4" class="node">
<title>SYN_SENT</title>
<ellipse fill="none" stroke="#000000" cx="82.5427" cy="-324" rx="64.189" ry="18"/>
<text text-anchor="middle" x="82.5427" y="-320.3" font-family="Times,serif" font-size="14.00" fill="#000000">SYN_SENT</text>
</g>
<!-- START&#45;&gt;SYN_SENT -->
<g id="edge1" class="edge">
<title>START&#45;&gt;SYN_SENT</title>
<path fill="none" stroke="#a020f0" d="M82.5427,-407.7644C82.5427,-392.317 82.5427,-369.9149 82.5427,-352.164"/>
<polygon fill="#a020f0" stroke="#a020f0" points="86.0428,-352.0776 82.5427,-342.0777 79.0428,-352.0777 86.0428,-352.0776"/>
<text text-anchor="start" x="82.5427" y="-378.8" font-family="Times,serif" font-size="14.00" fill="#000000">connect</text>
<text text-anchor="middle" x="127.0427" y="-363.8" font-family="Times,serif" font-size="14.00" fill="#000000">&gt;[send_syn]</text>
</g>
<!-- CLOSED -->
<g id="node2" class="node">
<title>CLOSED</title>
<polygon fill="#00ff00" stroke="#000000" points="407.5085,-10.5442 407.5085,-25.4558 374.1387,-36 326.9467,-36 293.5769,-25.4558 293.5769,-10.5442 326.9467,0 374.1387,0 407.5085,-10.5442"/>
<text text-anchor="middle" x="350.5427" y="-14.3" font-family="Times,serif" font-size="14.00" fill="#000000">CLOSED</text>
</g>
<!-- STOP -->
<g id="node3" class="node">
<title>STOP</title>
<polygon fill="#ffa500" stroke="#000000" points="624.5427,-240 566.5427,-240 566.5427,-204 624.5427,-204 624.5427,-240"/>
<text text-anchor="middle" x="595.5427" y="-218.3" font-family="Times,serif" font-size="14.00" fill="#000000">STOP</text>
</g>
<!-- STOP_SENT_FIN_ACK -->
<g id="node5" class="node">
<title>STOP_SENT_FIN_ACK</title>
<ellipse fill="none" stroke="#000000" cx="584.5427" cy="-120" rx="119.6788" ry="18"/>
<text text-anchor="middle" x="584.5427" y="-116.3" font-family="Times,serif" font-size="14.00" fill="#000000">STOP_SENT_FIN_ACK</text>
</g>
<!-- STOP&#45;&gt;STOP_SENT_FIN_ACK -->
<g id="edge2" class="edge">
<title>STOP&#45;&gt;STOP_SENT_FIN_ACK</title>
<path fill="none" stroke="#a020f0" d="M593.5761,-203.7644C591.9102,-188.317 589.4943,-165.9149 587.58,-148.164"/>
<polygon fill="#a020f0" stroke="#a020f0" points="591.0444,-147.6447 586.4922,-138.0777 584.0847,-148.3953 591.0444,-147.6447"/>
<text text-anchor="start" x="590.5427" y="-174.8" font-family="Times,serif" font-size="14.00" fill="#000000">stop_requested</text>
<text text-anchor="middle" x="664.0427" y="-159.8" font-family="Times,serif" font-size="14.00" fill="#000000">&gt;[stop_send_finack]</text>
</g>
<!-- ESTABLISHED -->
<g id="node6" class="node">
<title>ESTABLISHED</title>
<ellipse fill="none" stroke="#000000" cx="82.5427" cy="-222" rx="82.5854" ry="18"/>
<text text-anchor="middle" x="82.5427" y="-218.3" font-family="Times,serif" font-size="14.00" fill="#000000">ESTABLISHED</text>
</g>
<!-- SYN_SENT&#45;&gt;ESTABLISHED -->
<g id="edge3" class="edge">
<title>SYN_SENT&#45;&gt;ESTABLISHED</title>
<path fill="none" stroke="#ff0000" d="M82.5427,-305.7644C82.5427,-290.317 82.5427,-267.9149 82.5427,-250.164"/>
<polygon fill="#ff0000" stroke="#ff0000" points="86.0428,-250.0776 82.5427,-240.0777 79.0428,-250.0777 86.0428,-250.0776"/>
<text text-anchor="start" x="82.5427" y="-276.8" font-family="Times,serif" font-size="14.00" fill="#000000">synack_received</text>
<text text-anchor="middle" x="167.0427" y="-261.8" font-family="Times,serif" font-size="14.00" fill="#000000">&gt;[send_ack_of_synack]</text>
</g>
<!-- STOP_SENT_FIN_ACK&#45;&gt;CLOSED -->
<g id="edge8" class="edge">
<title>STOP_SENT_FIN_ACK&#45;&gt;CLOSED</title>
<path fill="none" stroke="#ff0000" d="M506.6853,-106.2285C476.8629,-99.941 447.0069,-92.0974 434.5427,-84 420.4538,-74.8471 424.1189,-65.1405 411.5427,-54 405.3941,-48.5534 398.3012,-43.4982 391.1753,-39.0009"/>
<polygon fill="#ff0000" stroke="#ff0000" points="392.5758,-35.7595 382.2002,-33.6152 388.974,-41.7618 392.5758,-35.7595"/>
<text text-anchor="start" x="434.5427" y="-72.8" font-family="Times,serif" font-size="14.00" fill="#000000">stop_fin_received</text>
<text text-anchor="middle" x="498.5427" y="-57.8" font-family="Times,serif" font-size="14.00" fill="#000000">&gt;[stop_send_ack]</text>
</g>
<!-- STOP_SENT_FIN_ACK&#45;&gt;CLOSED -->
<g id="edge10" class="edge">
<title>STOP_SENT_FIN_ACK&#45;&gt;CLOSED</title>
<path fill="none" stroke="#0000ff" d="M583.4641,-101.789C581.5559,-86.6988 576.39,-65.8691 562.5427,-54 541.1731,-35.6833 471.4311,-26.4545 417.7121,-21.9626"/>
<polygon fill="#0000ff" stroke="#0000ff" points="417.7891,-18.4577 407.5425,-21.1519 417.2328,-25.4355 417.7891,-18.4577"/>
<text text-anchor="middle" x="659.5427" y="-65.3" font-family="Times,serif" font-size="14.00" fill="#000000">stop_ack_timeout/1.0s</text>
</g>
<!-- ESTABLISHED&#45;&gt;CLOSED -->
<g id="edge5" class="edge">
<title>ESTABLISHED&#45;&gt;CLOSED</title>
<path fill="none" stroke="#ff0000" d="M78.2245,-203.9424C73.243,-178.3574 68.4369,-131.4044 91.5427,-102 116.2487,-70.5591 221.4144,-43.9885 289.9049,-29.5824"/>
<polygon fill="#ff0000" stroke="#ff0000" points="290.6484,-33.0028 299.73,-27.546 289.2277,-26.1484 290.6484,-33.0028"/>
<text text-anchor="middle" x="144.5427" y="-116.3" font-family="Times,serif" font-size="14.00" fill="#000000">reset_received</text>
</g>
<!-- ESTABLISHED&#45;&gt;ESTABLISHED -->
<g id="edge4" class="edge">
<title>ESTABLISHED&#45;&gt;ESTABLISHED</title>
<path fill="none" stroke="#ff0000" d="M163.0059,-226.2523C174.984,-225.5903 183.0854,-224.1729 183.0854,-222 183.0854,-220.5062 179.2562,-219.3694 172.9707,-218.5896"/>
<polygon fill="#ff0000" stroke="#ff0000" points="173.2652,-215.1021 163.0059,-217.7477 172.6757,-222.0773 173.2652,-215.1021"/>
<text text-anchor="start" x="183.0854" y="-225.8" font-family="Times,serif" font-size="14.00" fill="#000000">incoming_data_received</text>
<text text-anchor="middle" x="270.5854" y="-210.8" font-family="Times,serif" font-size="14.00" fill="#000000">&gt;[receive_data]</text>
</g>
<!-- ESTABLISHED&#45;&gt;ESTABLISHED -->
<g id="edge9" class="edge">
<title>ESTABLISHED&#45;&gt;ESTABLISHED</title>
<path fill="none" stroke="#ffa500" d="M157.3408,-229.7828C240.422,-233.42 358.0854,-230.8257 358.0854,-222 358.0854,-213.5277 249.6557,-210.7978 167.4768,-213.8103"/>
<polygon fill="#ffa500" stroke="#ffa500" points="167.1923,-210.3188 157.3408,-214.2172 167.4732,-217.3132 167.1923,-210.3188"/>
<text text-anchor="start" x="358.0854" y="-225.8" font-family="Times,serif" font-size="14.00" fill="#000000">outgoing_data_received</text>
<text text-anchor="middle" x="444.0854" y="-210.8" font-family="Times,serif" font-size="14.00" fill="#000000">&gt;[send_data]</text>
</g>
<!-- LAST_ACK -->
<g id="node7" class="node">
<title>LAST_ACK</title>
<ellipse fill="none" stroke="#000000" cx="268.5427" cy="-120" rx="62.2891" ry="18"/>
<text text-anchor="middle" x="268.5427" y="-116.3" font-family="Times,serif" font-size="14.00" fill="#000000">LAST_ACK</text>
</g>
<!-- ESTABLISHED&#45;&gt;LAST_ACK -->
<g id="edge6" class="edge">
<title>ESTABLISHED&#45;&gt;LAST_ACK</title>
<path fill="none" stroke="#ff0000" d="M113.2568,-205.1568C145.3662,-187.5484 195.8087,-159.8864 230.437,-140.8966"/>
<polygon fill="#ff0000" stroke="#ff0000" points="232.232,-143.9041 239.3172,-136.0269 228.8661,-137.7664 232.232,-143.9041"/>
<text text-anchor="start" x="197.5427" y="-174.8" font-family="Times,serif" font-size="14.00" fill="#000000">fin_received</text>
<text text-anchor="middle" x="252.0427" y="-159.8" font-family="Times,serif" font-size="14.00" fill="#000000">&gt;[send_finack]</text>
</g>
<!-- LAST_ACK&#45;&gt;CLOSED -->
<g id="edge7" class="edge">
<title>LAST_ACK&#45;&gt;CLOSED</title>
<path fill="none" stroke="#ff0000" d="M263.8817,-101.9378C261.3052,-87.7307 260.2565,-68.055 269.5427,-54 275.5829,-44.8579 284.5293,-38.0163 294.2979,-32.9028"/>
<polygon fill="#ff0000" stroke="#ff0000" points="295.8323,-36.0494 303.4405,-28.6761 292.8949,-29.6955 295.8323,-36.0494"/>
<text text-anchor="middle" x="340.5427" y="-65.3" font-family="Times,serif" font-size="14.00" fill="#000000">ack_of_fin_received</text>
</g>
</g>
</svg>
