<?xml version="1.0" encoding="UTF-8" standalone="no"?>
<!DOCTYPE svg PUBLIC "-//W3C//DTD SVG 1.1//EN"
 "http://www.w3.org/Graphics/SVG/1.1/DTD/svg11.dtd">
<!-- Generated by graphviz version 2.43.20200422.0433 (20200422.0433)
 -->
<!-- Title: pipe Pages: 1 -->
<svg width="114pt" height="188pt"
 viewBox="0.00 0.00 114.00 188.00" xmlns="http://www.w3.org/2000/svg" xmlns:xlink="http://www.w3.org/1999/xlink">
<g id="graph0" class="graph" transform="scale(1 1) rotate(0) translate(4 184)">
<title>pipe</title>
<polygon fill="white" stroke="transparent" points="-4,4 -4,-184 110,-184 110,4 -4,4"/>
<!-- 2518161510704 -->
<g id="node1" class="node">
<title>2518161510704</title>
<polygon fill="none" stroke="black" points="106,-108 0,-108 0,-72 106,-72 106,-108"/>
<text text-anchor="middle" x="53" y="-86.3" font-family="Times New Roman,serif" font-size="14.00">TransformDrain</text>
</g>
<!-- 2518161510896 -->
<g id="node3" class="node">
<title>2518161510896</title>
<polygon fill="none" stroke="black" points="102,-36 4,-36 4,0 102,0 102,-36"/>
<text text-anchor="middle" x="53" y="-14.3" font-family="Times New Roman,serif" font-size="14.00">WiresharkSink</text>
</g>
<!-- 2518161510704&#45;&gt;2518161510896 -->
<g id="edge1" class="edge">
<title>2518161510704&#45;&gt;2518161510896</title>
<path fill="none" stroke="blue" d="M53,-71.7C53,-63.98 53,-54.71 53,-46.11"/>
<polygon fill="blue" stroke="blue" points="53,-36.1 57.5,-46.1 53,-41.1 53,-46.1 53,-46.1 53,-46.1 53,-41.1 48.5,-46.1 53,-36.1 53,-36.1"/>
</g>
<!-- 2518161510992 -->
<g id="node2" class="node">
<title>2518161510992</title>
<polygon fill="none" stroke="black" points="94.5,-180 11.5,-180 11.5,-144 94.5,-144 94.5,-180"/>
<text text-anchor="middle" x="53" y="-158.3" font-family="Times New Roman,serif" font-size="14.00">SniffSource</text>
</g>
<!-- 2518161510992&#45;&gt;2518161510704 -->
<g id="edge2" class="edge">
<title>2518161510992&#45;&gt;2518161510704</title>
<path fill="none" stroke="blue" d="M53,-143.7C53,-135.98 53,-126.71 53,-118.11"/>
<polygon fill="blue" stroke="blue" points="53,-108.1 57.5,-118.1 53,-113.1 53,-118.1 53,-118.1 53,-118.1 53,-113.1 48.5,-118.1 53,-108.1 53,-108.1"/>
</g>
</g>
</svg>
